<svg xmlns="http://www.w3.org/2000/svg" width="71" height="58" viewBox="0 0 71 58"><g><g clip-path="url(#clip-1213)"><path fill="#fff" d="M66.102 57.998H4.895C2.191 57.998 0 55.835 0 53.164V14.497c0-2.67 2.192-4.832 4.896-4.832H19.74s-.153-.289-.153-3.626c0-3.336 2.74-6.041 6.12-6.041h19.587c3.38 0 6.12 2.705 6.12 6.04 0 3.338.153 3.627.153 3.627h14.536c2.704 0 4.896 2.163 4.896 4.832v38.667c0 2.67-2.192 4.834-4.896 4.834zm-30.493-9.732c8.113 0 14.69-6.492 14.69-14.5s-6.577-14.5-14.69-14.5-14.69 6.492-14.69 14.5 6.577 14.5 14.69 14.5z"/></g></g></svg>